<svg xmlns="http://www.w3.org/2000/svg" width="96" height="96" viewBox="0 0 96 96">
  <defs>
    <!-- Blue trace gradient -->
    <linearGradient id="trace" x1="0" y1="0" x2="1" y2="1">
      <stop offset="0%" stop-color="#1d4ed8" stop-opacity="0.28"/>
      <stop offset="100%" stop-color="#3b82f6" stop-opacity="0.28"/>
    </linearGradient>
    <!-- Yellow glow for nodes -->
    <radialGradient id="node" cx="0.5" cy="0.5" r="0.5">
      <stop offset="0%" stop-color="#facc15" stop-opacity="0.9"/>
      <stop offset="100%" stop-color="#facc15" stop-opacity="0.0"/>
    </radialGradient>
  </defs>

  <rect width="96" height="96" fill="none"/>

  <!-- Circuit traces (diagonals + right angles) -->
  <g stroke="url(#trace)" stroke-width="2" stroke-linecap="round" stroke-linejoin="round">
    <path d="M-10 32 L28 -6"/>
    <path d="M0 60 L60 0"/>
    <path d="M36 106 L106 36"/>
    <path d="M10 86 L86 10"/>
    <!-- Right angles -->
    <path d="M16 24 h18 v18"/>
    <path d="M70 20 v18 h18"/>
    <path d="M20 70 h18 v18"/>
  </g>

  <!-- Nodes (pads) -->
  <g>
    <circle cx="16" cy="24" r="2.5" fill="#facc15"/>
    <circle cx="34" cy="42" r="2.5" fill="#facc15"/>
    <circle cx="70" cy="20" r="2.5" fill="#facc15"/>
    <circle cx="88" cy="38" r="2.5" fill="#facc15"/>
    <circle cx="20" cy="70" r="2.5" fill="#facc15"/>
    <circle cx="38" cy="88" r="2.5" fill="#facc15"/>
    <circle cx="48" cy="12" r="2.5" fill="#facc15"/>
  </g>

  <!-- Soft node glows -->
  <g>
    <circle cx="16" cy="24" r="8" fill="url(#node)"/>
    <circle cx="34" cy="42" r="8" fill="url(#node)"/>
    <circle cx="70" cy="20" r="8" fill="url(#node)"/>
    <circle cx="88" cy="38" r="8" fill="url(#node)"/>
    <circle cx="20" cy="70" r="8" fill="url(#node)"/>
    <circle cx="38" cy="88" r="8" fill="url(#node)"/>
    <circle cx="48" cy="12" r="8" fill="url(#node)"/>
  </g>

  <!-- Subtle lightning glyphs -->
  <g fill="#fde047" fill-opacity="0.28">
    <path d="M54 52 l6 -10 h-5 l6 -12 l-3 9 h5 z"/>
    <path d="M22 50 l6 -10 h-5 l6 -12 l-3 9 h5 z"/>
  </g>
</svg>
